<svg width="1024" height="1024" viewBox="0 0 1024 1024" fill="none" xmlns="http://www.w3.org/2000/svg">
<g clip-path="url(#clip0_13902_140036)">
<rect width="1024" height="1024" fill="#FB17A0"/>
<path d="M855.418 295.636C869.912 320.843 878.104 351.406 879.995 387.325V388.27C879.995 392.681 879.995 397.092 879.995 401.503C879.995 405.284 879.68 409.065 879.049 412.846C875.268 443.094 865.186 470.821 848.802 496.028C833.048 521.234 813.198 542.66 789.252 560.304C765.305 577.949 738.839 590.867 709.851 599.059C680.864 606.621 399.087 607.881 368.839 602.84C369.469 611.662 369.784 620.484 369.784 629.307C369.784 637.499 369.784 649.787 369.784 666.171C369.784 681.925 369.784 703.351 369.784 730.447C370.415 757.544 371.36 794.094 372.62 840.095V841.041C371.99 841.041 371.36 841.356 370.73 841.986C370.73 841.986 370.415 841.986 369.784 841.986C360.962 844.507 349.619 846.397 335.756 847.657C322.522 848.288 308.344 848.918 293.22 849.548C278.726 849.548 264.233 849.233 249.739 848.603C235.245 847.973 222.642 847.027 211.929 845.767C210.039 799.765 209.093 749.982 209.093 696.419C209.093 642.225 209.093 586.771 209.093 530.056C209.093 473.342 208.778 416.312 208.148 358.968C208.148 301.623 207.203 246.799 205.312 194.496C231.149 187.564 259.191 182.523 289.439 179.372C320.317 176.221 350.88 175.906 381.127 178.427C412.005 180.947 694.097 186.619 723.085 195.441C752.072 203.633 777.594 216.236 799.649 233.251C822.335 249.635 840.925 270.43 855.418 295.636ZM733.482 366.53C729.071 358.968 722.77 352.666 714.577 347.625C698.823 335.021 680.549 327.144 659.754 323.994C638.958 320.213 366.319 320.843 346.153 325.884C344.893 325.884 343.948 326.199 343.318 326.829C343.948 338.172 343.948 350.145 343.318 362.749C343.318 375.352 343.318 387.955 343.318 400.558C343.948 413.161 344.578 425.45 345.208 437.423C346.469 448.766 348.674 459.163 351.825 468.616H354.661C364.743 467.985 627.615 467.67 638.958 467.67C650.301 467.04 661.329 466.095 672.042 464.835C683.384 463.574 694.097 461.369 704.18 458.218C714.893 454.437 724.03 448.766 731.592 441.204C736.633 434.272 740.099 426.395 741.989 417.573C744.51 408.75 744.825 399.928 742.935 391.106C741.674 382.284 738.524 374.091 733.482 366.53Z" fill="white"/>
</g>
<defs>
<clipPath id="clip0_13902_140036">
<rect width="1024" height="1024" fill="white"/>
</clipPath>
</defs>
</svg>
