<?xml version="1.0" encoding="UTF-8" standalone="no"?> <svg xmlns:dc="http://purl.org/dc/elements/1.1/" xmlns:cc="http://creativecommons.org/ns#" xmlns:rdf="http://www.w3.org/1999/02/22-rdf-syntax-ns#" xmlns:svg="http://www.w3.org/2000/svg" xmlns="http://www.w3.org/2000/svg" xmlns:sodipodi="http://sodipodi.sourceforge.net/DTD/sodipodi-0.dtd" xmlns:inkscape="http://www.inkscape.org/namespaces/inkscape" width="177" height="40" viewBox="0 0 46.831251 10.583334" version="1.1" id="svg8633" inkscape:version="0.92.2 5c3e80d, 2017-08-06" sodipodi:docname="eleccircuit-logo.svg"><defs id="defs8627"></defs><metadata id="metadata8630"></metadata><g inkscape:label="Layer 1" inkscape:groupmode="layer" id="layer1" transform="translate(0,-286.41665)"><rect style="fill:#ff6600;fill-opacity:1;stroke:none;stroke-width:0.39687502;stroke-linecap:round;stroke-linejoin:round;stroke-miterlimit:4;stroke-dasharray:none;stroke-dashoffset:0;stroke-opacity:1" id="rect8568" width="10.573131" height="10.583334" x="0.084542878" y="286.48636" rx="0.65206373" ry="0.65206373" inkscape:export-xdpi="300" inkscape:export-ydpi="300"></rect><path style="fill:#ffffff;fill-opacity:1;stroke:#feffff;stroke-width:0.69700009;stroke-linecap:square;stroke-linejoin:round;stroke-miterlimit:4;stroke-dasharray:none;stroke-opacity:1" d="m 6.0644866,295.37145 -4.2711711,-4.27532 4.7961134,-0.52542 z" id="path8570" inkscape:connector-curvature="0" sodipodi:nodetypes="cccc" inkscape:export-xdpi="300" inkscape:export-ydpi="300"></path><path sodipodi:nodetypes="cc" inkscape:connector-curvature="0" id="path8572" d="m 3.949751,293.21291 -1.8786935,1.88052" style="fill:#ffffff;fill-rule:evenodd;stroke:#feffff;stroke-width:0.69700009;stroke-linecap:round;stroke-linejoin:round;stroke-miterlimit:4;stroke-dasharray:none;stroke-opacity:1" inkscape:export-xdpi="300" inkscape:export-ydpi="300"></path><path style="fill:#ffffff;fill-rule:evenodd;stroke:#feffff;stroke-width:0.69700009;stroke-linecap:round;stroke-linejoin:round;stroke-miterlimit:4;stroke-dasharray:none;stroke-opacity:1" d="m 8.6671831,288.49094 -2.0191658,2.0211" id="path8574" inkscape:connector-curvature="0" sodipodi:nodetypes="cc" inkscape:export-xdpi="300" inkscape:export-ydpi="300"></path><path sodipodi:nodetypes="cc" inkscape:connector-curvature="0" id="path8576" d="M 8.9090048,292.6521 4.5553203,288.2942" style="fill:#ffffff;fill-rule:evenodd;stroke:#feffff;stroke-width:0.69700009;stroke-linecap:round;stroke-linejoin:round;stroke-miterlimit:4;stroke-dasharray:none;stroke-opacity:1" inkscape:export-xdpi="300" inkscape:export-ydpi="300"></path><g id="g8600" style="font-style:normal;font-variant:normal;font-weight:normal;font-stretch:normal;font-size:20.65749741px;line-height:125%;font-family:'Angsana New';-inkscape-font-specification:'Angsana New';text-align:center;letter-spacing:0px;word-spacing:0px;text-anchor:middle;fill:#001d00;fill-opacity:1;stroke:none;stroke-width:0.7503618px;stroke-linecap:butt;stroke-linejoin:miter;stroke-opacity:1" transform="matrix(0.28675732,0,0,0.43357981,-305.64163,524.32136)" aria-label="ElecCircuit"><path id="path8578" style="font-style:normal;font-variant:normal;font-weight:normal;font-stretch:normal;font-family:Toxigenesis;-inkscape-font-specification:Toxigenesis;letter-spacing:0.06099401px;fill:#001d00;fill-opacity:1;stroke-width:0.7503618px" d="m 1123.3271,-535.17245 h -9.8536 v 2.83007 h 9.9363 v 3.26389 h -13.9852 v -15.10063 h 13.9438 v 3.26388 h -9.8949 v 2.83008 h 9.8536 z" inkscape:connector-curvature="0"></path><path id="path8580" style="font-style:normal;font-variant:normal;font-weight:normal;font-stretch:normal;font-family:Toxigenesis;-inkscape-font-specification:Toxigenesis;letter-spacing:0.06099401px;fill:#001d00;fill-opacity:1;stroke-width:0.7503618px" d="m 1125.9048,-544.17912 h 3.7183 v 15.10063 h -3.7183 z" inkscape:connector-curvature="0"></path><path id="path8582" style="font-style:normal;font-variant:normal;font-weight:normal;font-stretch:normal;font-family:Toxigenesis;-inkscape-font-specification:Toxigenesis;letter-spacing:0.06099401px;fill:#001d00;fill-opacity:1;stroke-width:0.7503618px" d="m 1142.0289,-531.49542 v 2.41693 h -4.3381 q -1.8385,0 -2.9953,-0.26855 -1.1362,-0.2892 -1.7765,-0.86761 -0.6198,-0.59907 -0.847,-1.508 -0.2272,-0.92959 -0.2272,-2.23101 0,-1.23945 0.2065,-2.16904 0.2273,-0.92959 0.847,-1.54931 0.6404,-0.61973 1.7972,-0.90893 1.1568,-0.30986 3.0367,-0.30986 1.8178,0 2.954,0.2892 1.1361,0.26855 1.7765,0.84696 0.6404,0.55775 0.8676,1.42537 0.2479,0.84695 0.2479,2.00377 v 1.2188 h -8.3869 q 0.021,0.47512 0.1446,0.78498 0.1446,0.30986 0.4545,0.49578 0.3098,0.18592 0.8056,0.26855 0.4958,0.062 1.2394,0.062 z m -4.1728,-5.16437 q -0.7437,0 -1.2601,0.0826 -0.5164,0.062 -0.8263,0.24789 -0.3099,0.18591 -0.4545,0.51643 -0.1239,0.30987 -0.1239,0.78499 v 0.12394 h 5.1437 v -0.12394 q 0,-0.47512 -0.1239,-0.78499 -0.124,-0.33052 -0.4338,-0.51643 -0.2893,-0.18592 -0.7644,-0.24789 -0.4751,-0.0826 -1.1568,-0.0826 z" inkscape:connector-curvature="0"></path><path id="path8584" style="font-style:normal;font-variant:normal;font-weight:normal;font-stretch:normal;font-family:Toxigenesis;-inkscape-font-specification:Toxigenesis;letter-spacing:0.06099401px;fill:#001d00;fill-opacity:1;stroke-width:0.7503618px" d="m 1155.4673,-531.8466 v 2.76811 h -4.9165 q -1.5287,0 -2.5616,-0.24789 -1.0328,-0.24789 -1.6526,-0.80564 -0.6197,-0.55776 -0.8882,-1.46669 -0.2686,-0.92958 -0.2686,-2.27232 0,-1.32208 0.2686,-2.23101 0.2685,-0.92959 0.8882,-1.48734 0.6198,-0.55775 1.6526,-0.80564 1.0329,-0.24789 2.5616,-0.24789 h 4.9165 v 2.7681 h -4.9785 q -1.0329,0 -1.4047,0.43381 -0.3718,0.43381 -0.3718,1.56997 0,1.13616 0.3718,1.59063 0.3718,0.4338 1.4047,0.4338 z" inkscape:connector-curvature="0"></path><path id="path8586" style="font-style:normal;font-variant:normal;font-weight:normal;font-stretch:normal;font-family:Toxigenesis;-inkscape-font-specification:Toxigenesis;letter-spacing:0.06099401px;fill:#001d00;fill-opacity:1;stroke-width:0.7503618px" d="m 1170.9197,-529.07849 h -7.0442 q -1.6733,0 -2.9334,-0.28921 -1.2601,-0.30986 -2.107,-1.13616 -0.8263,-0.8263 -1.2395,-2.29298 -0.4131,-1.46668 -0.4131,-3.82164 0,-2.35495 0.4131,-3.82163 0.4132,-1.46669 1.2395,-2.29299 0.8469,-0.84695 2.107,-1.13616 1.2601,-0.30986 2.9334,-0.30986 h 7.0442 v 3.32586 h -7.0236 q -0.7643,0 -1.2807,0.18591 -0.5165,0.16526 -0.847,0.64039 -0.3098,0.47512 -0.4544,1.30142 -0.1446,0.8263 -0.1446,2.10706 0,1.28077 0.1446,2.10707 0.1446,0.8263 0.4544,1.30142 0.3305,0.45446 0.847,0.64038 0.5371,0.16526 1.2807,0.16526 h 7.0236 z" inkscape:connector-curvature="0"></path><path id="path8588" style="font-style:normal;font-variant:normal;font-weight:normal;font-stretch:normal;font-family:Toxigenesis;-inkscape-font-specification:Toxigenesis;letter-spacing:0.06099401px;fill:#001d00;fill-opacity:1;stroke-width:0.7503618px" d="m 1173.2333,-529.07849 z m 0,-9.56442 h 3.7184 v 9.56442 h -3.7184 z m 0.124,-4.60662 h 3.4291 v 3.01599 h -3.4291 z" inkscape:connector-curvature="0"></path><path id="path8590" style="font-style:normal;font-variant:normal;font-weight:normal;font-stretch:normal;font-family:Toxigenesis;-inkscape-font-specification:Toxigenesis;letter-spacing:0.06099401px;fill:#001d00;fill-opacity:1;stroke-width:0.7503618px" d="m 1184.7715,-536.14336 q -0.785,0 -1.1155,0.22724 -0.3099,0.20657 -0.3099,0.70235 v 6.13528 h -3.7183 v -6.3212 q 0,-0.88827 0.2479,-1.50799 0.2479,-0.61973 0.785,-0.99156 0.5577,-0.3925 1.446,-0.55776 0.8883,-0.18591 2.1897,-0.18591 h 2.2103 v 2.49955 z" inkscape:connector-curvature="0"></path><path id="path8592" style="font-style:normal;font-variant:normal;font-weight:normal;font-stretch:normal;font-family:Toxigenesis;-inkscape-font-specification:Toxigenesis;letter-spacing:0.06099401px;fill:#001d00;fill-opacity:1;stroke-width:0.7503618px" d="m 1197.9139,-531.8466 v 2.76811 h -4.9165 q -1.5287,0 -2.5616,-0.24789 -1.0328,-0.24789 -1.6526,-0.80564 -0.6197,-0.55776 -0.8882,-1.46669 -0.2686,-0.92958 -0.2686,-2.27232 0,-1.32208 0.2686,-2.23101 0.2685,-0.92959 0.8882,-1.48734 0.6198,-0.55775 1.6526,-0.80564 1.0329,-0.24789 2.5616,-0.24789 h 4.9165 v 2.7681 h -4.9785 q -1.0329,0 -1.4047,0.43381 -0.3719,0.43381 -0.3719,1.56997 0,1.13616 0.3719,1.59063 0.3718,0.4338 1.4047,0.4338 z" inkscape:connector-curvature="0"></path><path id="path8594" style="font-style:normal;font-variant:normal;font-weight:normal;font-stretch:normal;font-family:Toxigenesis;-inkscape-font-specification:Toxigenesis;letter-spacing:0.06099401px;fill:#001d00;fill-opacity:1;stroke-width:0.7503618px" d="m 1212.3954,-529.07849 h -6.7757 q -1.5286,0 -2.5821,-0.22723 -1.0536,-0.22724 -1.7146,-0.6817 -0.6404,-0.47512 -0.9296,-1.19814 -0.2686,-0.74367 -0.2686,-1.73523 v -5.72212 h 3.7184 v 5.26766 q 0,0.6817 0.3512,1.01222 0.3511,0.30986 1.4253,0.30986 h 3.078 v -6.58974 h 3.6977 z" inkscape:connector-curvature="0"></path><path id="path8596" style="font-style:normal;font-variant:normal;font-weight:normal;font-stretch:normal;font-family:Toxigenesis;-inkscape-font-specification:Toxigenesis;letter-spacing:0.06099401px;fill:#001d00;fill-opacity:1;stroke-width:0.7503618px" d="m 1215.1151,-529.07849 z m 0,-9.56442 h 3.7183 v 9.56442 h -3.7183 z m 0.1239,-4.60662 h 3.4292 v 3.01599 h -3.4292 z" inkscape:connector-curvature="0"></path><path id="path8598" style="font-style:normal;font-variant:normal;font-weight:normal;font-stretch:normal;font-family:Toxigenesis;-inkscape-font-specification:Toxigenesis;letter-spacing:0.06099401px;fill:#001d00;fill-opacity:1;stroke-width:0.7503618px" d="m 1220.7452,-538.64291 h 1.7765 v -3.38783 h 3.6977 v 3.38783 h 3.2433 v 2.49955 h -3.2433 v 3.51178 q 0,0.49578 0.3099,0.72301 0.3305,0.20658 1.1155,0.20658 h 1.3841 v 2.6235 h -1.8386 q -1.3014,0 -2.1897,-0.16526 -0.8882,-0.18592 -1.446,-0.55775 -0.5577,-0.3925 -0.8056,-1.01222 -0.2273,-0.61973 -0.2273,-1.508 v -3.82164 h -1.7765 z" inkscape:connector-curvature="0"></path></g></g></svg> 